<?xml version="1.0" encoding="UTF-8" standalone="no"?>
<!-- Created with Inkscape (http://www.inkscape.org/) -->

<svg
   width="297mm"
   height="210mm"
   viewBox="0 0 1122.5197 793.70081"
   version="1.1"
   id="svg1"
   xml:space="preserve"
   inkscape:version="1.4 (e7c3feb100, 2024-10-09)"
   sodipodi:docname="map.svg"
   xmlns:inkscape="http://www.inkscape.org/namespaces/inkscape"
   xmlns:sodipodi="http://sodipodi.sourceforge.net/DTD/sodipodi-0.dtd"
   xmlns="http://www.w3.org/2000/svg"
   xmlns:svg="http://www.w3.org/2000/svg"><sodipodi:namedview
     id="namedview1"
     pagecolor="#ffffff"
     bordercolor="#000000"
     borderopacity="0.25"
     inkscape:showpageshadow="2"
     inkscape:pageopacity="0.0"
     inkscape:pagecheckerboard="0"
     inkscape:deskcolor="#d1d1d1"
     inkscape:document-units="mm"
     inkscape:zoom="0.50396825"
     inkscape:cx="344.26772"
     inkscape:cy="567.49606"
     inkscape:window-width="1920"
     inkscape:window-height="1003"
     inkscape:window-x="0"
     inkscape:window-y="0"
     inkscape:window-maximized="1"
     inkscape:current-layer="layer1" /><defs
     id="defs1" /><g
     inkscape:label="Layer 1"
     inkscape:groupmode="layer"
     id="layer1"><rect
       style="fill:#ffffff;stroke:none;stroke-width:5.91496;stroke-dasharray:none;stroke-opacity:1"
       id="rect35"
       width="1162.7716"
       height="831.40155"
       x="-11.905512"
       y="-19.84252" /><path
       id="path23"
       style="fill:none;stroke:#000000;stroke-width:7.20764;stroke-dasharray:none;stroke-opacity:1"
       d="m 475.10992,635.65556 v 0 0 l 0.26019,-12.22635 -83.87083,1.96454 -0.60447,-40.19755 -98.52933,0.30224 0.60447,96.31933 M 743.96212,619.84072 H 658.0491 v 15.81484 m 184.64888,47.01707 c 0.85485,0 0,-100.01814 0,-100.01814 h -98.30843 l -0.85486,74.37246 m 0.85486,-417.16971 h 96.59873 l -1.70972,-81.21131 m -272.27162,81.21131 v -82.06617 m -117.5427,82.06617 c 0,0 -5.12914,-82.06617 0,-82.06617 5.12913,0 248.76309,0 248.76309,0 l -0.85486,82.06617 m -398.36288,-80.35645 0.85485,81.21131 89.75988,-0.85486 M 841.84313,341.58512 V 275.76119 H 293.0256 l 0.85486,60.69478 m 575.31805,346.21666 v -98.30844 h 57.27536 v 48.7268 h 33.33938 v -47.01708 h 67.53365 M 870.05337,504.00774 V 562.9928 H 1027.3469 M 293.88046,455.28095 289.60617,497.1689 m 552.23696,1.7097 v 50.43651 h -63.25934 v 10.25826 H 357.1398 l 3.3775,-12.605 H 289.60617 V 497.1689 h 69.24333 v 51.29135 l -1.7097,-2.56457 m 484.70333,-88.90502 v 41.88794 l -100.87301,-3.41942 m 0,-153.87406 H 841.84313 V 456.99066 H 740.97012 M 394.75345,336.45597 H 293.88046 v 118.82498 h 98.95647 m 1.91652,-118.82498 346.21667,5.12915 V 495.45918 H 392.18889 Z m 632.59345,36.75881 H 870.05337 M 1027.3469,504.00774 H 870.05337 V 158.64593 M 266.07084,547.11431 H 110.08641 M 266.07084,420.65928 H 110.11643 M 266.07084,289.60821 H 110.08641 M 266.07084,681.81777 V 159.50079 M 110.08641,681.81777 V 159.50079 h 279.53791 v 80.35645 h 354.76523 v -81.21131 h 282.95735 v 524.0267 H 743.53469 V 657.02695 H 658.0491 V 635.65556 H 475.10992 v 23.08111 h -85.4856 v 23.0811 z"
       inkscape:label="path23" /><path
       style="fill:#d40000;stroke:none;stroke-width:8.29915;stroke-dasharray:none;stroke-opacity:1"
       d="M 874.11761,265.88329 V 162.75705 h 74.36313 74.36316 v 103.12624 103.12623 h -74.36316 -74.36313 z"
       id="path24"
       inkscape:label=":A101" /><path
       style="fill:#d40000;stroke:none;stroke-width:8.29915;stroke-dasharray:none;stroke-opacity:1"
       d="m 874.11761,438.46188 v -61.03389 h 74.36313 74.36316 v 61.03389 61.0339 h -74.36316 -74.36313 z"
       id="path25"
       inkscape:label=":A102" /><path
       style="fill:#d40000;stroke:none;stroke-width:8.29915;stroke-dasharray:none;stroke-opacity:1"
       d="m 745.03443,399.1757 v -54.01851 h 46.30157 46.30158 v 54.01851 54.0185 H 791.336 745.03443 Z"
       id="path26"
       inkscape:label=":A108" /><path
       style="fill:#d40000;stroke:none;stroke-width:8.29915;stroke-dasharray:none;stroke-opacity:1"
       d="m 571.05276,198.53554 v -37.18157 h 61.91901 61.91902 l -0.86968,5.26155 c -0.47833,2.89384 -0.87663,19.62555 -0.88512,37.18156 l -0.0154,31.92003 H 632.0867 571.05281 Z"
       id="path27"
       inkscape:label=":A110" /><path
       style="fill:#d40000;stroke:none;stroke-width:8.29915;stroke-dasharray:none;stroke-opacity:1"
       d="m 452.71342,219.93248 c -0.50025,-8.68155 -0.91241,-25.41325 -0.91592,-37.18157 l -0.006,-21.39694 h 55.42159 55.42158 v 37.18157 37.18157 H 508.129 453.62333 Z"
       id="path28"
       inkscape:label=":A109" /><path
       style="fill:#d40000;stroke:none;stroke-width:8.29915;stroke-dasharray:none;stroke-opacity:1"
       d="m 115.0524,224.49248 v -60.33235 h 73.66159 73.6616 v 60.33235 60.33236 h -73.6616 -73.66159 z"
       id="path29"
       inkscape:label=":A106" /><path
       style="fill:#d40000;stroke:none;stroke-width:8.29915;stroke-dasharray:none;stroke-opacity:1"
       d="m 298.85562,395.668 v -54.72004 h 45.60003 45.60004 v 20.81897 c 0,11.45043 -0.41668,36.07445 -0.92596,54.72004 l -0.92596,33.90108 H 343.5297 298.85562 Z"
       id="path30"
       inkscape:label=":A107" /><path
       style="fill:#d40000;stroke:none;stroke-width:8.29915;stroke-dasharray:none;stroke-opacity:1"
       d="m 115.0524,354.97874 v -61.73543 h 73.66159 73.6616 v 61.73543 61.73543 h -73.6616 -73.66159 z"
       id="path31"
       inkscape:label=":A105" /><path
       style="fill:#d40000;stroke:none;stroke-width:8.29915;stroke-dasharray:none;stroke-opacity:1"
       d="m 115.0524,484.06192 v -58.92928 h 73.66159 73.6616 v 58.92928 58.92927 h -73.6616 -73.66159 z"
       id="path32"
       inkscape:label=":A104" /><path
       style="fill:#d40000;stroke:none;stroke-width:8.29915;stroke-dasharray:none;stroke-opacity:1"
       d="m 115.0524,614.54817 v -63.13851 h 73.66159 73.6616 v 63.13851 63.13851 h -73.6616 -73.66159 z"
       id="path33"
       inkscape:label=":A103" /><text
       xml:space="preserve"
       style="font-size:47.2444px;text-align:start;writing-mode:lr-tb;direction:ltr;text-anchor:start;fill:#1a1a1a;stroke:none;stroke-width:23.2874;stroke-dasharray:none;stroke-opacity:1"
       x="897.76495"
       y="286.47876"
       id="text33"><tspan
         sodipodi:role="line"
         id="tspan33"
         x="897.76495"
         y="286.47876"
         style="stroke-width:23.2874">A101</tspan><tspan
         sodipodi:role="line"
         x="897.76495"
         y="345.53427"
         id="tspan34"
         style="stroke-width:23.2874" /></text><text
       xml:space="preserve"
       style="font-size:47.2444px;text-align:start;writing-mode:lr-tb;direction:ltr;text-anchor:start;fill:#1a1a1a;stroke:none;stroke-width:23.2874;stroke-dasharray:none;stroke-opacity:1"
       x="889.9931"
       y="454.11145"
       id="text33-6"><tspan
         sodipodi:role="line"
         x="889.9931"
         y="454.11145"
         id="tspan34-9"
         style="stroke-width:23.2874">A102</tspan></text><text
       xml:space="preserve"
       style="font-size:47.2444px;text-align:start;writing-mode:lr-tb;direction:ltr;text-anchor:start;fill:#1a1a1a;stroke:none;stroke-width:23.2874;stroke-dasharray:none;stroke-opacity:1"
       x="133.93799"
       y="628.89099"
       id="text33-6-0"><tspan
         sodipodi:role="line"
         x="133.93799"
         y="628.89099"
         id="tspan34-9-9"
         style="stroke-width:23.2874">A103</tspan></text><text
       xml:space="preserve"
       style="font-size:47.2444px;text-align:start;writing-mode:lr-tb;direction:ltr;text-anchor:start;fill:#1a1a1a;stroke:none;stroke-width:23.2874;stroke-dasharray:none;stroke-opacity:1"
       x="133.83562"
       y="497.26105"
       id="text33-6-6"><tspan
         sodipodi:role="line"
         x="133.83562"
         y="497.26105"
         id="tspan34-9-2"
         style="stroke-width:23.2874">A104</tspan></text><text
       xml:space="preserve"
       style="font-size:47.2444px;text-align:start;writing-mode:lr-tb;direction:ltr;text-anchor:start;fill:#1a1a1a;stroke:none;stroke-width:23.2874;stroke-dasharray:none;stroke-opacity:1"
       x="131.88286"
       y="371.10358"
       id="text33-6-7"><tspan
         sodipodi:role="line"
         x="131.88286"
         y="371.10358"
         id="tspan34-9-92"
         style="stroke-width:23.2874">A105</tspan></text><text
       xml:space="preserve"
       style="font-size:47.2444px;text-align:start;writing-mode:lr-tb;direction:ltr;text-anchor:start;fill:#1a1a1a;stroke:none;stroke-width:23.2874;stroke-dasharray:none;stroke-opacity:1"
       x="126.77262"
       y="235.14294"
       id="text33-6-75"><tspan
         sodipodi:role="line"
         x="126.77262"
         y="235.14294"
         id="tspan34-9-922"
         style="stroke-width:23.2874">A106</tspan></text><text
       xml:space="preserve"
       style="font-size:38.0623px;text-align:start;writing-mode:lr-tb;direction:ltr;text-anchor:start;fill:#1a1a1a;stroke:none;stroke-width:18.7614;stroke-dasharray:none;stroke-opacity:1"
       x="459.41919"
       y="212.5013"
       id="text33-6-3"><tspan
         sodipodi:role="line"
         x="459.41919"
         y="212.5013"
         id="tspan34-9-6"
         style="stroke-width:18.7614">A109</tspan></text><text
       xml:space="preserve"
       style="font-size:38.0623px;text-align:start;writing-mode:lr-tb;direction:ltr;text-anchor:start;fill:#1a1a1a;stroke:none;stroke-width:18.7614;stroke-dasharray:none;stroke-opacity:1"
       x="581.21448"
       y="209.4541"
       id="text33-6-3-3"><tspan
         sodipodi:role="line"
         x="581.21448"
         y="209.4541"
         id="tspan34-9-6-1"
         style="stroke-width:18.7614">A110</tspan></text><text
       xml:space="preserve"
       style="font-size:31.5036px;text-align:start;writing-mode:lr-tb;direction:ltr;text-anchor:start;fill:#1a1a1a;stroke:none;stroke-width:15.5286;stroke-dasharray:none;stroke-opacity:1"
       x="752.74603"
       y="411.15326"
       id="text33-6-3-8"><tspan
         sodipodi:role="line"
         x="752.74603"
         y="411.15326"
         id="tspan34-9-6-4"
         style="stroke-width:15.5286">A108</tspan></text><text
       xml:space="preserve"
       style="font-size:31.5036px;text-align:start;writing-mode:lr-tb;direction:ltr;text-anchor:start;fill:#1a1a1a;stroke:none;stroke-width:15.5286;stroke-dasharray:none;stroke-opacity:1"
       x="306.52554"
       y="412.57843"
       id="text33-6-3-8-6"><tspan
         sodipodi:role="line"
         x="306.52554"
         y="412.57843"
         id="tspan34-9-6-4-1"
         style="stroke-width:15.5286">A107</tspan></text></g></svg>
