<svg width="800" height="600" xmlns="http://www.w3.org/2000/svg">
  <defs>
    <symbol id="stairs45x45">
      <path d="M32.5,15l-5,0l0,5l-5,0l0,5l-5,0l0,5l-5,0" fill="none" stroke="#fff" stroke-width="3" stroke-linecap="round" stroke-linejoin="round" />
    </symbol>
    <symbol id="stairs40x40">
      <path d="M30,12.5l-5,0l0,5l-5,0l0,5l-5,0l0,5l-5,0" fill="none" stroke="#fff" stroke-width="3" stroke-linecap="round" stroke-linejoin="round" />
    </symbol>
  </defs>

  <rect width="100%" height="100%" fill="#333" />

  <text x="60" y="60" fill="#fff" text-anchor="start" dominant-baseline="central" font-weight="bold">Mesiano - 3rd Floor</text>

  <polygon points="260,120 350,120 350,110 450,110 450,120 540,120 540,205 495,205 495,180 450,180 450,240 460,240 460,320 450,320 450,365 460,375 510,375 510,415 600,415 600,345 680,345 680,500 630,500 630,480 455,480 455,500 345,500 345,480 170,480 170,500 120,500 120,345 200,345 200,415 290,415 290,375 340,375 350,365 350,320 340,320 340,240 350,240 350,180 305,180 305,205 260,205" fill="none" stroke="#000" stroke-width="5" />

  <polygon points="260,120 350,120 350,180 305,180 305,205 260,205" fill="none" stroke="#000" stroke-width="5" />
  <polygon points="450,120 540,120 540,205 495,205 495,180 450,180" fill="none" stroke="#000" stroke-width="5" />
  <polygon points="420,180 450,180 450,220 410,220 410,190" fill="none" stroke="#000" stroke-width="5" />
  <use x="410" y="180" href="#stairs40x40" />
  <polygon points="350,180 380,180 390,190 390,220 350,220" fill="none" stroke="#000" stroke-width="5" />
  <use x="350" y="180" href="#stairs40x40" />

  <polygon points="120,345 200,345 200,415 170,415 170,400 120,400" fill="none" stroke="#000" stroke-width="5" />
  <polygon points="600,345 680,345 680,400 630,400 630,415 600,415" fill="none" stroke="#000" stroke-width="5" />
  <polygon points="630,400 680,400 680,500 630,500" fill="none" stroke="#000" stroke-width="5" />
  <polygon points="455,435 455,480 630,480 630,435" fill="none" stroke="#000" stroke-width="5" />
  <polygon points="345,435 375,435 390,450 410,450 425,435 455,435 455,500 345,500" fill="none" stroke="#000" stroke-width="5" />

  <polygon points="170,435 345,435 345,480 170,480" fill="none" stroke="#000" stroke-width="5" />
  <polygon points="120,450 170,450 170,500 120,500" fill="none" stroke="#000" stroke-width="5" />

  <polygon points="410,220 450,220 450,240 410,240" fill="none" stroke="#000" stroke-width="5" />
  <polygon id="4A" points="410,240 460,240 460,320 410,320" fill="none" stroke="#000" stroke-width="5" />
  <text x="435" y="280" fill="#fff" dominant-baseline="central" text-anchor="middle">4A</text>
  <polygon points="410,320 450,320 450,365 445,370 410,370" fill="none" stroke="#000" stroke-width="5" />

  <polygon points="350,220 390,220 390,240 350,240" fill="none" stroke="#000" stroke-width="5" />
  <polygon id="4B" points="340,240 390,240 390,320 340,320" fill="none" stroke="#000" stroke-width="5" />
  <text x="365" y="280" fill="#fff" dominant-baseline="central" text-anchor="middle">4B</text>
  <polygon points="350,320 390,320 390,370 355,370 350,365" fill="none" stroke="#000" stroke-width="5" />

  <polygon points="290,375 340,375 345,380 345,415 290,415" fill="none" stroke="#000" stroke-width="5" />
  <polygon points="460,375 510,375 510,415 455,415 455,380" fill="none" stroke="#000" stroke-width="5" />

  <polygon points="350,365 355,370 390,370 390,400 375,415 345,415 345,380 340,375" fill="none" stroke="#000" stroke-width="5" />
  <use x="345" y="370" href="#stairs45x45" />
  <polygon points="450,365 445,370 410,370 410,400 425,415 455,415 455,380 460,375" fill="none" stroke="#000" stroke-width="5" />
  <use x="410" y="370" href="#stairs45x45" />
</svg>
